<?xml version="1.0" encoding="UTF-8" standalone="no"?>
<!DOCTYPE svg PUBLIC "-//W3C//DTD SVG 1.1//EN"
 "http://www.w3.org/Graphics/SVG/1.1/DTD/svg11.dtd">
<!-- Generated by graphviz version 2.38.0 (20140413.2041)
 -->
<!-- Title: %3 Pages: 1 -->
<svg width="165pt" height="226pt"
 viewBox="0.00 0.00 165.00 226.00" xmlns="http://www.w3.org/2000/svg" xmlns:xlink="http://www.w3.org/1999/xlink">
<g id="graph0" class="graph" transform="scale(1 1) rotate(0) translate(4 222)">
<title>%3</title>
<polygon fill="white" stroke="none" points="-4,4 -4,-222 161,-222 161,4 -4,4"/>
<!-- 2567593954216 -->
<g id="node1" class="node"><title>2567593954216</title>
<polygon fill="#caff70" stroke="black" points="118.5,-21 32.5,-21 32.5,-0 118.5,-0 118.5,-21"/>
<text text-anchor="middle" x="75.5" y="-7.4" font-family="Times New Roman,serif" font-size="12.00">TanhBackward</text>
</g>
<!-- 2567594283528 -->
<g id="node2" class="node"><title>2567594283528</title>
<polygon fill="lightgrey" stroke="black" points="126,-78 25,-78 25,-57 126,-57 126,-78"/>
<text text-anchor="middle" x="75.5" y="-64.4" font-family="Times New Roman,serif" font-size="12.00">AddmmBackward</text>
</g>
<!-- 2567594283528&#45;&gt;2567593954216 -->
<g id="edge1" class="edge"><title>2567594283528&#45;&gt;2567593954216</title>
<path fill="none" stroke="black" d="M75.5,-56.9197C75.5,-49.9083 75.5,-40.1442 75.5,-31.4652"/>
<polygon fill="black" stroke="black" points="79.0001,-31.3408 75.5,-21.3408 72.0001,-31.3409 79.0001,-31.3408"/>
</g>
<!-- 2567490261120 -->
<g id="node3" class="node"><title>2567490261120</title>
<polygon fill="lightblue" stroke="black" points="65,-148 0,-148 0,-114 65,-114 65,-148"/>
<text text-anchor="middle" x="32.5" y="-134.4" font-family="Times New Roman,serif" font-size="12.00">layer1.bias</text>
<text text-anchor="middle" x="32.5" y="-121.4" font-family="Times New Roman,serif" font-size="12.00"> (1)</text>
</g>
<!-- 2567490261120&#45;&gt;2567594283528 -->
<g id="edge2" class="edge"><title>2567490261120&#45;&gt;2567594283528</title>
<path fill="none" stroke="black" d="M43.7977,-113.842C49.7075,-105.389 56.956,-95.0222 63.0297,-86.3354"/>
<polygon fill="black" stroke="black" points="65.9666,-88.2429 68.8284,-78.0419 60.2298,-84.2318 65.9666,-88.2429"/>
</g>
<!-- 2567594283472 -->
<g id="node4" class="node"><title>2567594283472</title>
<polygon fill="lightgrey" stroke="black" points="154,-141.5 83,-141.5 83,-120.5 154,-120.5 154,-141.5"/>
<text text-anchor="middle" x="118.5" y="-127.9" font-family="Times New Roman,serif" font-size="12.00">TBackward</text>
</g>
<!-- 2567594283472&#45;&gt;2567594283528 -->
<g id="edge3" class="edge"><title>2567594283472&#45;&gt;2567594283528</title>
<path fill="none" stroke="black" d="M111.781,-120.391C105.507,-111.417 95.9777,-97.7879 88.2596,-86.7491"/>
<polygon fill="black" stroke="black" points="90.9121,-84.4348 82.3135,-78.2449 85.1753,-88.4459 90.9121,-84.4348"/>
</g>
<!-- 2567594134608 -->
<g id="node5" class="node"><title>2567594134608</title>
<polygon fill="lightblue" stroke="black" points="157,-218 80,-218 80,-184 157,-184 157,-218"/>
<text text-anchor="middle" x="118.5" y="-204.4" font-family="Times New Roman,serif" font-size="12.00">layer1.weight</text>
<text text-anchor="middle" x="118.5" y="-191.4" font-family="Times New Roman,serif" font-size="12.00"> (1, 2)</text>
</g>
<!-- 2567594134608&#45;&gt;2567594283472 -->
<g id="edge4" class="edge"><title>2567594134608&#45;&gt;2567594283472</title>
<path fill="none" stroke="black" d="M118.5,-183.885C118.5,-174.309 118.5,-162.088 118.5,-151.912"/>
<polygon fill="black" stroke="black" points="122,-151.895 118.5,-141.895 115,-151.895 122,-151.895"/>
</g>
</g>
</svg>
